<svg xmlns="http://www.w3.org/2000/svg" viewBox="0 0 128 128" width="128" height="128">
  <style>
    .bg { fill: #f0f0f0; }
    .fg { fill: #444; }
    @media (prefers-color-scheme: dark) {
      .bg { fill: #333; }
      .fg { fill: #eee; }
    }
  </style>
  <rect class="bg" width="128" height="128" rx="24"/>
  <path class="fg" d="M32 42h24v-8l12 12-12 12v-8H32v-8zm64 36H72v8l-12-12 12-12v8h24v8z" />
  <path class="fg" fill-rule="evenodd" d="M24 24a8 8 0 0 1 8-8h64a8 8 0 0 1 8 8v80a8 8 0 0 1-8 8H32a8 8 0 0 1-8-8V24zm8-4h64a4 4 0 0 1 4 4v80a4 4 0 0 1-4 4H32a4 4 0 0 1-4-4V24a4 4 0 0 1 4-4z" clip-rule="evenodd"/>
</svg>